<?xml version="1.0" encoding="UTF-8"?> <!-- Generator: Adobe Illustrator 25.4.1, SVG Export Plug-In . SVG Version: 6.00 Build 0) --> <svg xmlns="http://www.w3.org/2000/svg" xmlns:xlink="http://www.w3.org/1999/xlink" version="1.1" id="Laag_1" x="0px" y="0px" viewBox="0 0 467.72 370.03" style="enable-background:new 0 0 467.72 370.03;" xml:space="preserve"> <style type="text/css"> .st0{fill-rule:evenodd;clip-rule:evenodd;fill:#FA440F;} .st1{fill:#124D4D;} </style> <g> <path class="st0" d="M241.86,54.52c11.74,0,21.26,9.52,21.26,21.26s-9.52,21.26-21.26,21.26c-11.74,0-21.26-9.52-21.26-21.26 S230.12,54.52,241.86,54.52L241.86,54.52z"></path> <path class="st1" d="M441.56,368.43v-42.08h25.92v8.68h-16.17v7.61h13.85v8.62h-13.85v8.32h16.41v8.86H441.56L441.56,368.43z M0,219.57V7.2h54.65c16.8,0,30.15,1.2,39.99,3.65c9.85,2.45,18.6,6.55,26.25,12.3c7.9,5.75,14.05,12.95,18.4,21.6 c3.82,7.6,5.94,15.58,6.4,23.95H98.56c-0.41-1.88-1.01-3.71-1.82-5.49c-1.64-3.63-3.97-6.66-6.96-9.07 c-2.89-2.41-6.2-4.14-9.93-5.17c-3.73-1.03-8.77-1.53-15.13-1.53H50.79v56.67c7.64,0,8.56-0.05,16.21,0.02 c9.91,0.09,17.76-2.64,23.52-7.94c3.92-3.59,6.51-8.02,7.78-13.32h46.81c-2.17,16.53-9.6,29.98-22.27,40.42 c-15.25,12.6-36,18.9-62.19,18.9c-2.7,0-4.75,0-6.15-0.05c-1.35-0.05-2.65-0.15-3.8-0.25v77.69H0L0,219.57z M341.51,166.44 c6.82,4.14,13.24,7.37,19.28,9.69c7.8,2.95,15.3,4.45,22.4,4.45c10.65,0,19.35-3,26.09-9c6.75-6,10.1-13.7,10.1-23.05 c0-10.65-4.15-19.15-12.5-25.54c-8.35-6.4-19.6-9.6-33.65-9.6c-6.55,0-12.75,0.45-18.6,1.4c-5.85,0.9-11.5,2.35-16.85,4.3V7.2 h123.58l-8.48,42.89h-75.81v28.15c0.5,0,1.3-0.05,2.5-0.1c6.15-0.7,10.5-1.05,13.05-1.05c21.89,0,39.79,6.9,53.79,20.75 c13.95,13.8,20.95,31.5,20.95,53.04c0,22.1-7.7,40.25-23.05,54.5c-15.4,14.25-35.2,21.4-59.39,21.4c-13.3,0-25.9-2.15-37.79-6.4 c-11.89-4.25-23.39-10.69-34.53-19.39C323.72,189.04,333.35,177.52,341.51,166.44L341.51,166.44z M242.46,149.38 c-0.6,0-1.5,0.05-2.7,0.15c-1.25,0.1-2.15,0.15-2.75,0.15c-21.25,0-38.59-7-52.04-20.95c-11.75-12.18-18.38-27.5-19.87-45.87h42.04 c3.28,16.17,17.58,28.35,34.72,28.35c19.57,0,35.43-15.86,35.43-35.43s-15.86-35.43-35.43-35.43c-17.14,0-31.44,12.17-34.72,28.35 h-42.16c1.29-18.65,8.67-34.41,22.19-47.29C202.11,7.15,220.76,0,243.11,0c21.35,0,39.25,7.55,53.64,22.65 c14.4,15.05,21.59,34.14,21.59,57.19c0,20-6.75,41.5-20.2,64.49c-13.5,22.99-34.05,48.09-61.69,75.24h-56.69 c13.85-14.65,25.7-27.5,35.45-38.44C224.96,170.13,234.06,159.53,242.46,149.38L242.46,149.38z M13.37,304.78v-33.29H0v-8.8h36.74 v8.8H23.42v33.29H13.37L13.37,304.78z M52.12,262.69v23.12c0,3.72,0.68,6.5,2.05,8.34c1.36,1.85,3.43,2.77,6.2,2.77 c2.67,0,4.71-0.86,6.1-2.59c1.41-1.71,2.11-4.22,2.11-7.51v-24.14h8.98v24.14c0,6.07-1.56,10.82-4.68,14.22 c-3.11,3.4-7.44,5.09-12.98,5.09c-5.6,0-9.95-1.68-13.06-5.05c-3.1-3.37-4.66-8.1-4.66-14.2v-24.2H52.12L52.12,262.69z M87.83,304.78v-42.08h10.82c3.47,0,6.15,0.23,8.06,0.68c1.91,0.46,3.6,1.21,5.07,2.28c1.57,1.12,2.78,2.51,3.65,4.16 c0.86,1.65,1.29,3.4,1.29,5.23c0,2.66-0.67,4.97-2.02,6.96c-1.35,1.99-3.29,3.55-5.83,4.68l12.84,18.09h-11.47L99,288.25h-1.43 v16.52H87.83L87.83,304.78z M99.23,270.36h-1.65v11.65h2.12c2.54,0,4.47-0.52,5.81-1.54c1.34-1.02,2-2.5,2-4.41 c0-2.01-0.64-3.46-1.94-4.36C104.26,270.81,102.15,270.36,99.23,270.36L99.23,270.36z M126.75,304.78v-43.45h0.96l26.2,24.56 v-23.19h9.27v43.69h-0.87l-26.29-24.56v22.95H126.75L126.75,304.78z M173.97,304.78v-42.08h10.05v42.08H173.97L173.97,304.78z M194.87,304.78v-43.45h0.96l26.2,24.56v-23.19h9.27v43.69h-0.87l-26.29-24.56v22.95H194.87L194.87,304.78z M277.7,281.42v20.46 c-2.82,1.42-5.58,2.48-8.25,3.19c-2.68,0.72-5.28,1.08-7.8,1.08c-6.41,0-11.72-2.11-15.95-6.34c-4.23-4.23-6.34-9.57-6.34-16.01 c0-6.51,2.14-11.89,6.43-16.14c4.29-4.26,9.71-6.39,16.28-6.39c2.48,0,4.83,0.34,7.08,1.02c2.24,0.67,4.4,1.7,6.47,3.07 l-1.08,10.53c-1.95-1.97-3.89-3.42-5.83-4.33c-1.94-0.92-3.97-1.38-6.1-1.38c-3.77,0-6.9,1.26-9.37,3.78 c-2.48,2.53-3.72,5.69-3.72,9.47c0,3.99,1.2,7.24,3.59,9.77s5.47,3.78,9.23,3.78c0.87,0,1.75-0.08,2.65-0.23 c0.89-0.16,1.81-0.38,2.78-0.67v-6.11h-7.97v-8.56H277.7L277.7,281.42z M313.61,304.78v-42.08h11.18c7.86,0,14.02,1.87,18.47,5.63 c4.45,3.75,6.68,8.9,6.68,15.42c0,3.9-0.88,7.38-2.65,10.4c-1.75,3.03-4.34,5.52-7.75,7.48c-1.94,1.12-4.04,1.92-6.32,2.42 c-2.27,0.5-5.08,0.74-8.43,0.74H313.61L313.61,304.78z M323.54,295.74h2.21c4.39,0,7.83-1.06,10.3-3.19 c2.48-2.13,3.72-5.06,3.72-8.82c0-3.75-1.24-6.7-3.72-8.85c-2.48-2.15-5.91-3.22-10.3-3.22h-2.21V295.74L323.54,295.74z M352.53,304.78l21.47-43.39h0.63l20.99,43.39h-10.51l-2.67-6.12h-17.08l-2.72,6.12H352.53L352.53,304.78z M368.28,291.4h11.06 l-5.46-13.18L368.28,291.4L368.28,291.4z M405.18,304.78v-33.29h-13.37v-8.8h36.74v8.8h-13.31v33.29H405.18L405.18,304.78z M424.62,304.78l21.47-43.39h0.63l20.99,43.39H457.2l-2.67-6.12h-17.08l-2.72,6.12H424.62L424.62,304.78z M440.37,291.4h11.06 l-5.46-13.18L440.37,291.4L440.37,291.4z M2.27,368.43v-42.08h10.05v42.08H2.27L2.27,368.43z M23.17,368.43v-43.45h0.96l26.2,24.56 v-23.19h9.27v43.69h-0.87l-26.29-24.56v22.95H23.17L23.17,368.43z M78.83,368.43v-33.29H65.46v-8.8h36.74v8.8H88.88v33.29H78.83 L78.83,368.43z M105.45,347.39c0-3.12,0.53-6.03,1.61-8.75c1.07-2.72,2.65-5.15,4.75-7.3c1.97-2.05,4.27-3.63,6.89-4.72 c2.61-1.1,5.35-1.64,8.21-1.64c2.86,0,5.61,0.55,8.23,1.65c2.63,1.1,4.95,2.69,6.98,4.77c2.05,2.07,3.61,4.46,4.66,7.18 c1.06,2.71,1.59,5.66,1.59,8.81c0,2.64-0.37,5.11-1.1,7.43c-0.74,2.32-1.83,4.44-3.29,6.36c-2.05,2.72-4.57,4.84-7.56,6.35 c-2.99,1.52-6.16,2.27-9.51,2.27c-2.84,0-5.57-0.55-8.17-1.65c-2.61-1.1-4.91-2.69-6.92-4.77c-2.09-2.14-3.68-4.57-4.75-7.27 C105.98,353.41,105.45,350.5,105.45,347.39L105.45,347.39z M115.79,347.39c0,3.66,1.07,6.73,3.21,9.19 c2.14,2.47,4.78,3.71,7.91,3.71c3.15,0,5.8-1.23,7.93-3.69c2.13-2.47,3.19-5.54,3.19-9.21c0-3.7-1.06-6.79-3.19-9.25 c-2.13-2.47-4.78-3.71-7.93-3.71c-3.13,0-5.77,1.24-7.91,3.71C116.86,340.6,115.79,343.69,115.79,347.39L115.79,347.39z M183.74,368.43v-42.08h25.92v8.68h-16.17v7.61h13.85v8.62h-13.85v8.32h16.41v8.86H183.74L183.74,368.43z M234.62,370.03h-0.69 l-19.86-43.69h10.63l9.93,23.01l10.02-23.01h9.85L234.62,370.03L234.62,370.03z M260.16,368.43v-42.08h10.05v42.08H260.16 L260.16,368.43z M279.22,368.43v-42.08h11.18c7.86,0,14.02,1.87,18.47,5.63c4.45,3.75,6.68,8.9,6.68,15.42 c0,3.9-0.88,7.38-2.65,10.4c-1.75,3.03-4.34,5.52-7.75,7.48c-1.94,1.12-4.04,1.92-6.32,2.42c-2.27,0.5-5.08,0.74-8.43,0.74H279.22 L279.22,368.43z M289.14,359.39h2.21c4.39,0,7.83-1.06,10.3-3.19c2.48-2.13,3.72-5.06,3.72-8.82c0-3.75-1.24-6.7-3.72-8.85 c-2.48-2.15-5.91-3.22-10.3-3.22h-2.21V359.39L289.14,359.39z M322.46,368.43v-42.08h25.92v8.68h-16.17v7.61h13.85v8.62h-13.85 v8.32h16.41v8.86H322.46L322.46,368.43z M356.19,368.43v-43.45h0.96l26.2,24.56v-23.19h9.27v43.69h-0.87l-26.29-24.56v22.95H356.19 L356.19,368.43z M433.25,339.66c-1.82-1.87-3.67-3.26-5.53-4.17c-1.87-0.9-3.83-1.36-5.88-1.36c-3.56,0-6.47,1.23-8.73,3.69 c-2.27,2.46-3.4,5.62-3.4,9.46c0,3.85,1.12,6.97,3.37,9.36c2.24,2.39,5.16,3.59,8.77,3.59c2.13,0,4.25-0.45,6.37-1.34 c2.12-0.89,4.23-2.23,6.34-4.01l-0.64,11.18c-1.8,1.22-3.76,2.15-5.9,2.78c-2.14,0.64-4.36,0.96-6.67,0.96 c-2.48,0-4.84-0.39-7.12-1.16c-2.27-0.77-4.37-1.92-6.28-3.43c-2.71-2.13-4.78-4.73-6.23-7.8c-1.44-3.06-2.16-6.41-2.16-10.03 c0-3.12,0.53-6.04,1.59-8.77c1.07-2.72,2.62-5.14,4.65-7.23c2.05-2.09,4.42-3.69,7.11-4.8c2.68-1.11,5.52-1.66,8.5-1.66 c2.37,0,4.62,0.33,6.77,0.99c2.15,0.65,4.2,1.65,6.15,2.99L433.25,339.66L433.25,339.66z"></path> </g> </svg> 